<svg viewBox="0 0 232.92 51.82" xmlns="http://www.w3.org/2000/svg"><path d="m0 .72h21.59v7.2h-13.67v13.32h10.86v7.2h-10.86v15.48h13.67v7.2h-21.59z"/><path d="m26.12.72h11.73c4.08 0 7.05.95 8.93 2.84 1.87 1.9 2.81 4.81 2.81 8.75v3.09c0 5.23-1.73 8.54-5.18 9.94v.14c1.92.58 3.28 1.75 4.07 3.53s1.18 4.15 1.18 7.13v8.86c0 1.44.05 2.6.15 3.49s.33 1.76.72 2.63h-8.06c-.29-.81-.48-1.58-.58-2.3s-.15-2.02-.15-3.89v-9.21c0-2.31-.37-3.91-1.11-4.82-.75-.91-2.03-1.37-3.85-1.37h-2.73v21.59h-7.92v-50.4zm10.8 21.6c1.58 0 2.77-.41 3.56-1.23.79-.81 1.19-2.18 1.19-4.1v-3.89c0-1.82-.33-3.14-.97-3.96-.65-.81-1.67-1.22-3.06-1.22h-3.6v14.4z"/><path d="m55.13.72h21.59v7.2h-13.67v13.32h10.86v7.2h-10.86v15.48h13.67v7.2h-21.59z"/><path d="m83.74 48.58c-1.99-2.16-2.99-5.21-2.99-9.14v-27.06c0-3.93 1-6.98 2.99-9.14s4.88-3.24 8.67-3.24 6.68 1.08 8.67 3.24 2.99 5.21 2.99 9.14v5.33h-7.49v-5.83c0-3.12-1.32-4.68-3.96-4.68s-3.96 1.56-3.96 4.68v28.15c0 3.07 1.32 4.6 3.96 4.6s3.96-1.53 3.96-4.6v-7.71h7.49v7.13c0 3.94-1 6.98-2.99 9.14s-4.88 3.24-8.67 3.24-6.68-1.08-8.67-3.24z"/><path d="m115.02 7.92h-8.28v-7.2h24.47v7.2h-8.28v43.18h-7.92v-43.18z"/><path d="m137.25 48.51c-2.06-2.21-3.09-5.33-3.09-9.36v-26.48c0-4.03 1.03-7.15 3.09-9.36s5.04-3.31 8.93-3.31 6.86 1.11 8.93 3.31c2.06 2.2 3.09 5.32 3.09 9.36v26.49c0 4.03-1.03 7.15-3.09 9.36-2.06 2.2-5.04 3.31-8.93 3.31s-6.86-1.11-8.93-3.31zm13.03-8.86v-27.49c0-3.31-1.37-4.97-4.1-4.97s-4.1 1.66-4.1 4.97v27.5c0 3.31 1.37 4.97 4.1 4.97s4.1-1.66 4.1-4.97z"/><path d="m163.53.72h9.93l7.7 30.16h.15v-30.16h7.05v50.39h-8.13l-9.5-36.78h-.15v36.78h-7.05z"/><path d="m194.26.72h7.92v50.39h-7.92z"/><path d="m208.08.72h9.93l7.7 30.16h.15v-30.16h7.05v50.39h-8.13l-9.5-36.78h-.15v36.78h-7.05z"/></svg>